HIERARCHY
ROOT Hips
{
	OFFSET 0.000000 0.000000 0.000000
	CHANNELS 6 Xposition Yposition Zposition Zrotation Yrotation Xrotation 
	JOINT LeftUpLeg_virtual
	{
		OFFSET 0.000000 0.000000 0.000000
		CHANNELS 3 Zrotation Yrotation Xrotation
		JOINT LeftUpLeg
		{
			OFFSET 10.205400 -3.823500 0.155100
			CHANNELS 3 Zrotation Yrotation Xrotation
			JOINT LeftLeg
			{
				OFFSET 0.708757 -12.982077 0.567790
				CHANNELS 3 Zrotation Yrotation Xrotation
				JOINT LeftFoot
				{
					OFFSET -0.708756 -10.717838 -2.184338
					CHANNELS 3 Zrotation Yrotation Xrotation
					JOINT LeftToeBase
					{
						OFFSET 0.108149 -7.191104 7.560241
						CHANNELS 3 Zrotation Yrotation Xrotation
						End Site
						{
							OFFSET 0.000000 0.000000 0.000000
						}
					}
				}
			}
		}
	}
	JOINT RightUpLeg_virtual
	{
		OFFSET 0.000000 0.000000 0.000000
		CHANNELS 3 Zrotation Yrotation Xrotation
		JOINT RightUpLeg
		{
			OFFSET -10.205400 -3.823500 0.005500
			CHANNELS 3 Zrotation Yrotation Xrotation
			JOINT RightLeg
			{
				OFFSET -0.708756 -12.982134 0.610632
				CHANNELS 3 Zrotation Yrotation Xrotation
				JOINT RightFoot
				{
					OFFSET 0.708754 -10.717769 -1.945823
					CHANNELS 3 Zrotation Yrotation Xrotation
					JOINT RightToeBase
					{
						OFFSET -0.108140 -7.191069 7.372968
						CHANNELS 3 Zrotation Yrotation Xrotation
						End Site
						{
							OFFSET 0.000000 0.000000 0.000000
						}
					}
				}
			}
		}
	}
	JOINT Spine_virtual
	{
		OFFSET 0.000000 0.000000 0.000000
		CHANNELS 3 Zrotation Yrotation Xrotation
		JOINT Spine
		{
			OFFSET 0.000000 6.876099 0.125700
			CHANNELS 3 Zrotation Yrotation Xrotation
			JOINT Spine1
			{
				OFFSET 0.000000 8.022060 0.146608
				CHANNELS 3 Zrotation Yrotation Xrotation
				JOINT Spine2
				{
					OFFSET 0.000000 9.168068 0.167552
					CHANNELS 3 Zrotation Yrotation Xrotation
					JOINT Neck_virtual
					{
						OFFSET 0.000000 0.000000 0.000000
						CHANNELS 3 Zrotation Yrotation Xrotation
						JOINT Neck
						{
							OFFSET 0.000000 10.314075 0.188496
							CHANNELS 3 Zrotation Yrotation Xrotation
							JOINT Head
							{
								OFFSET 0.000000 7.643700 -2.377400
								CHANNELS 3 Zrotation Yrotation Xrotation
								End Site
								{
									OFFSET 0.000000 0.000000 0.000000
								}
							}
						}
					}
					JOINT LeftShoulder_virtual
					{
						OFFSET 0.000000 0.000000 0.000000
						CHANNELS 3 Zrotation Yrotation Xrotation
						JOINT LeftShoulder
						{
							OFFSET 4.392200 8.824978 0.174984
							CHANNELS 3 Zrotation Yrotation Xrotation
							JOINT LeftArm
							{
								OFFSET 8.771219 -2.981674 -0.026999
								CHANNELS 3 Zrotation Yrotation Xrotation
								JOINT LeftForeArm
								{
									OFFSET 8.512804 0.000000 -0.000000
									CHANNELS 3 Zrotation Yrotation Xrotation
									JOINT LeftHand
									{
										OFFSET 18.484802 0.000000 -0.000000
										CHANNELS 3 Zrotation Yrotation Xrotation
										End Site
										{
											OFFSET 0.000000 0.000000 0.000000
										}
									}
								}
							}
						}
					}
					JOINT RightShoulder_virtual
					{
						OFFSET 0.000000 0.000000 0.000000
						CHANNELS 3 Zrotation Yrotation Xrotation
						JOINT RightShoulder
						{
							OFFSET -4.392200 8.824993 0.141379
							CHANNELS 3 Zrotation Yrotation Xrotation
							JOINT RightArm
							{
								OFFSET -8.771282 -2.981682 -0.094208
								CHANNELS 3 Zrotation Yrotation Xrotation
								JOINT RightForeArm
								{
									OFFSET -8.494598 0.000000 0.000000
									CHANNELS 3 Zrotation Yrotation Xrotation
									JOINT RightHand
									{
										OFFSET -18.483803 0.000000 0.000001
										CHANNELS 3 Zrotation Yrotation Xrotation
										End Site
										{
											OFFSET 0.000000 0.000000 0.000000
										}
									}
								}
							}
						}
					}
				}
			}
		}
	}
}
MOTION
Frames: 5
Frame Time: 0.033333
-11.425693 35.977013 -43.281551 179.556453 10.524074 -179.307137 0.390752 -2.700540 10.492718 -7.269647 0.009788 -29.832350 12.494308 6.097122 24.666706 -8.490700 5.800872 5.034183 0.000000 0.000000 0.000000 3.905400 -0.852548 7.671832 0.554574 11.644034 -28.056464 -7.308115 5.743706 21.879568 14.173482 2.173068 10.032521 0.000000 0.000000 0.000000 1.256628 0.673838 -5.241065 3.429453 1.226030 -10.756003 -1.342081 -3.081394 13.928679 0.066141 -0.015660 0.135341 -1.218710 -1.529252 14.467985 -3.040979 -7.144980 22.225355 0.000000 0.000000 0.000000 0.652049 -1.272585 10.981409 -8.887248 -5.729384 3.997479 -53.949267 16.327192 8.364963 -160.872402 -84.230275 177.368360 0.000000 0.000000 0.000000 -3.816171 0.668330 9.944126 29.235819 11.131340 7.335283 42.201792 -0.931019 -3.909377 -171.280162 71.256331 -175.477395 0.000000 0.000000 0.000000 
-11.455369 35.995773 -43.286987 179.380329 10.815652 -179.336411 0.198881 -2.538347 10.479678 -7.446179 -0.044348 -29.669444 12.887833 6.208867 24.486706 -8.624171 5.776915 5.101225 0.000000 0.000000 0.000000 3.802421 -0.634226 7.682182 0.356182 11.657999 -28.213261 -7.168422 5.953615 22.053185 14.182465 2.278713 10.085653 0.000000 0.000000 0.000000 1.130204 0.790529 -5.310634 3.327950 1.196761 -10.765651 -1.320481 -3.127771 13.833654 0.099543 0.012272 0.177257 -1.206797 -1.609208 14.423690 -2.883076 -7.122795 22.638280 0.000000 0.000000 0.000000 0.635935 -1.277781 10.979712 -8.884670 -5.731995 3.795864 -54.124615 16.451851 8.462061 -160.183017 -83.983405 176.780951 0.000000 0.000000 0.000000 -3.779900 0.689586 9.821176 29.497463 11.439748 7.453648 41.591655 1.071078 -3.364851 -171.921872 70.456693 -176.009453 0.000000 0.000000 0.000000 
-11.495167 36.018784 -43.283215 179.295252 11.100305 -179.294993 0.084451 -2.419241 10.521777 -7.614560 -0.168508 -29.663276 13.355847 6.419862 24.363024 -8.822613 5.771678 5.217204 0.000000 0.000000 0.000000 3.842182 -0.497375 7.674872 0.061445 11.659593 -28.466506 -7.030679 5.984409 22.203406 14.141325 2.443961 10.155524 0.000000 0.000000 0.000000 1.027150 0.974786 -5.439149 3.284491 0.998891 -10.775919 -1.292630 -3.298761 13.812169 0.069125 0.106347 0.185753 -1.250302 -1.613730 14.401097 -2.694056 -7.041300 22.908420 0.000000 0.000000 0.000000 0.580832 -1.309891 10.745063 -8.876138 -5.773325 3.876777 -54.288714 16.483258 8.801236 -161.484359 -84.041059 178.207477 0.000000 0.000000 0.000000 -3.844605 0.736577 9.830379 29.713881 11.758363 7.311551 41.357444 2.407933 -2.812423 -172.419465 69.824286 -176.369841 0.000000 0.000000 0.000000 
-11.541502 36.029774 -43.250778 179.413906 11.336225 -179.242086 0.144341 -2.280233 10.631898 -7.776034 -0.275579 -29.826968 13.789858 6.609332 24.297689 -9.086912 5.812073 5.320832 0.000000 0.000000 0.000000 4.103622 -0.294523 7.710288 -0.304388 11.553513 -28.825147 -6.894994 6.032468 22.416580 14.120688 2.657323 10.072453 0.000000 0.000000 0.000000 1.151770 1.312405 -5.577513 3.182230 1.019541 -10.738324 -1.340694 -3.411551 13.801958 0.070647 0.028504 0.167010 -1.154075 -1.723713 14.378125 -2.341037 -7.177637 23.080167 0.000000 0.000000 0.000000 0.583158 -1.395231 10.747173 -8.876994 -5.929737 3.755164 -54.615132 16.639418 9.077595 -162.486840 -83.896450 179.344963 0.000000 0.000000 0.000000 -3.786872 0.570239 9.794105 29.819213 11.939507 7.151252 41.499379 3.183634 -2.230013 -172.868973 69.366595 -176.681640 0.000000 0.000000 0.000000 
-11.603867 36.021240 -43.207474 179.341165 11.443428 -179.223208 0.044748 -2.140511 10.750850 -7.923961 -0.462692 -30.132906 14.233149 6.952412 24.348135 -9.482481 5.861843 5.385896 0.000000 0.000000 0.000000 4.167726 -0.072721 7.817425 -0.650390 11.365250 -29.279587 -6.771160 5.982913 22.899855 14.163300 2.884884 9.896597 0.000000 0.000000 0.000000 1.060370 1.404554 -5.709766 3.068097 0.959567 -10.728372 -1.240022 -3.456334 13.786146 0.045890 0.037390 0.151304 -1.163374 -1.724979 14.332407 -2.056413 -7.221340 23.288718 0.000000 0.000000 0.000000 0.622897 -1.370142 10.625015 -8.864355 -6.039541 3.662115 -55.061266 16.768287 9.351462 -162.981578 -83.974778 179.986276 0.000000 0.000000 0.000000 -3.825230 0.662293 9.668107 29.820883 12.076882 7.089311 41.948737 3.314525 -1.716870 -172.744076 69.041219 -176.442733 0.000000 0.000000 0.000000 
